<?xml version="1.0" encoding="UTF-8" standalone="no"?><!DOCTYPE svg PUBLIC "-//W3C//DTD SVG 1.1//EN" "http://www.w3.org/Graphics/SVG/1.1/DTD/svg11.dtd"><svg width="100%" height="100%" viewBox="0 0 4638 1234" version="1.1" xmlns="http://www.w3.org/2000/svg" xmlns:xlink="http://www.w3.org/1999/xlink" xml:space="preserve" xmlns:serif="http://www.serif.com/" style="fill-rule:evenodd;clip-rule:evenodd;stroke-linejoin:round;stroke-miterlimit:2;"><rect id="Mesa-de-trabajo1" serif:id="Mesa de trabajo1" x="2.712" y="0.665" width="4633.79" height="1230.6" style="fill:none;"/><g><g><path d="M1638.41,366.636c3.496,2.055 6.067,4.726 7.713,8.014c1.645,3.287 1.336,7.191 -0.926,11.711l-52.14,73.969c-2.263,3.493 -4.679,5.496 -7.25,6.01c-2.571,0.514 -5.708,-0.36 -9.41,-2.62c-10.078,-7.602 -21.185,-13.458 -33.32,-17.567c-12.136,-4.11 -24.991,-6.164 -38.565,-6.164c-16.866,0 -32.395,3.184 -46.587,9.554c-14.192,6.37 -26.43,15.102 -36.714,26.197c-10.284,11.096 -18.306,24.04 -24.065,38.834c-5.759,14.794 -8.638,30.615 -8.638,47.463c0,16.849 2.879,32.618 8.638,47.309c5.759,14.691 13.781,27.533 24.065,38.526c10.284,10.992 22.522,19.673 36.714,26.043c14.192,6.37 29.721,9.554 46.587,9.554c13.574,0 26.532,-2.106 38.873,-6.318c12.341,-4.212 23.551,-10.119 33.629,-17.722c3.702,-2.26 6.787,-3.184 9.256,-2.773c2.468,0.411 4.936,2.26 7.404,5.547l52.757,75.818c2.263,4.521 2.571,8.322 0.926,11.404c-1.646,3.082 -4.217,5.65 -7.713,7.705c-19.334,12.944 -40.16,22.961 -62.476,30.05c-22.316,7.088 -45.815,10.633 -70.497,10.633c-21.802,0 -42.73,-2.774 -62.784,-8.322c-20.054,-5.547 -38.822,-13.458 -56.305,-23.731c-17.483,-10.274 -33.372,-22.551 -47.666,-36.831c-14.295,-14.28 -26.585,-30.101 -36.869,-47.463c-10.284,-17.362 -18.202,-36.06 -23.756,-56.093c-5.553,-20.033 -8.33,-40.94 -8.33,-62.719c0,-21.78 2.777,-42.687 8.33,-62.72c5.554,-20.033 13.472,-38.833 23.756,-56.401c10.284,-17.568 22.574,-33.543 36.869,-47.926c14.294,-14.382 30.183,-26.659 47.666,-36.83c17.483,-10.171 36.251,-18.081 56.305,-23.732c20.054,-5.65 40.982,-8.475 62.784,-8.475c24.682,0 47.975,3.441 69.88,10.325c21.905,6.883 42.525,16.797 61.859,29.741Z" style="fill:#ce3749;fill-rule:nonzero;"/><path d="M2080.83,785.793c-2.674,2.26 -5.502,3.698 -8.484,4.315c-2.982,0.616 -5.81,0.924 -8.484,0.924l-46.587,0c-3.702,0 -6.89,-0.668 -9.564,-2.003c-2.674,-1.336 -4.936,-3.133 -6.788,-5.394c-1.851,-2.26 -3.393,-4.828 -4.627,-7.705c-1.234,-2.876 -2.263,-5.856 -3.086,-8.938l-6.479,-30.204c-3.085,6.37 -8.227,13.099 -15.426,20.188c-7.198,7.088 -16.094,13.612 -26.687,19.571c-10.592,5.958 -22.779,10.89 -36.559,14.793c-13.781,3.904 -28.796,5.856 -45.044,5.856c-23.448,0 -44.222,-4.52 -62.322,-13.561c-18.099,-9.04 -33.371,-21.368 -45.815,-36.984c-12.444,-15.616 -21.853,-33.851 -28.23,-54.706c-6.376,-20.855 -9.564,-43.097 -9.564,-66.726l0,-201.873c0,-7.808 1.697,-13.715 5.091,-17.722c3.394,-4.007 8.793,-6.01 16.197,-6.01l71.269,0c8.844,0 14.911,1.49 18.202,4.469c3.291,2.979 4.937,8.784 4.937,17.413l0,200.641c0,8.835 1.696,17.208 5.09,25.118c3.394,7.911 7.97,14.897 13.729,20.958c5.759,6.062 12.495,10.839 20.209,14.332c7.713,3.493 15.888,5.239 24.527,5.239c7.404,0 15.426,-1.233 24.065,-3.698c8.638,-2.466 16.66,-6.318 24.064,-11.558c7.405,-5.239 13.575,-11.968 18.511,-20.187c4.937,-8.219 7.405,-18.081 7.405,-29.588l0,-200.332c0,-3.493 0.668,-6.986 2.005,-10.479c1.337,-3.493 3.343,-6.164 6.016,-8.013c2.674,-1.644 5.194,-2.774 7.559,-3.39c2.366,-0.617 5.091,-0.925 8.176,-0.925l69.726,0c8.844,0 15.22,2.157 19.128,6.472c3.908,4.315 5.862,10.068 5.862,17.26l0,344.879c0,3.904 -0.874,7.5 -2.623,10.787c-1.748,3.288 -4.165,5.856 -7.25,7.705l1.851,-0.924Z" style="fill:#ce3749;fill-rule:nonzero;"/><path d="M2169.06,422.421c0,-3.904 0.72,-7.294 2.16,-10.171c1.44,-2.876 3.342,-5.239 5.708,-7.088c2.365,-1.85 5.039,-3.236 8.021,-4.161c2.982,-0.925 5.913,-1.387 8.793,-1.387l46.587,0c5.142,0 9.255,1.541 12.34,4.623c3.086,3.082 5.708,6.986 7.868,11.712c2.159,4.726 4.062,9.965 5.707,15.718c1.646,5.753 3.6,11.301 5.862,16.643c6.171,-6.78 12.29,-13.458 18.357,-20.033c6.068,-6.575 12.598,-12.431 19.591,-17.568c6.993,-5.136 14.655,-9.297 22.985,-12.482c8.33,-3.185 17.843,-4.777 28.538,-4.777c11.107,0 21.031,0.822 29.773,2.466c8.741,1.643 17.02,4.058 24.835,7.242c7.816,3.185 15.581,7.243 23.294,12.174c7.713,4.932 16.094,10.685 25.144,17.26c8.844,5.137 13.267,11.198 13.267,18.184c0,4.52 -1.749,9.76 -5.245,15.718l-28.076,47.772c-5.553,8.013 -12.443,12.02 -20.671,12.02c-4.113,0 -8.741,-1.13 -13.883,-3.391c-8.844,-8.629 -17.843,-15.05 -26.996,-19.262c-9.152,-4.212 -19.591,-6.319 -31.314,-6.319c-8.022,0 -15.067,1.131 -21.134,3.391c-6.068,2.26 -11.57,5.445 -16.506,9.554c-4.936,4.109 -9.564,9.041 -13.883,14.794c-4.32,5.753 -8.639,12.122 -12.958,19.108l0,223.14c0,7.807 -1.903,13.715 -5.708,17.721c-3.805,4.007 -10.13,6.01 -18.974,6.01l-69.417,0c-16.043,0 -24.065,-7.91 -24.065,-23.731l0,-344.88Z" style="fill:#ce3749;fill-rule:nonzero;"/><path d="M2572.62,669.292c5.554,5.548 11.57,10.222 18.049,14.023c6.479,3.801 12.701,6.883 18.665,9.246c5.965,2.363 11.21,4.058 15.735,5.086c4.525,1.027 7.61,1.541 9.255,1.541c3.908,0 8.896,-0.154 14.964,-0.463c6.067,-0.308 11.878,-1.232 17.431,-2.773c5.553,-1.541 10.336,-4.058 14.346,-7.551c4.011,-3.493 6.016,-8.425 6.016,-14.794c0,-5.753 -1.131,-10.325 -3.393,-13.715c-2.263,-3.39 -5.554,-6.267 -9.873,-8.63c-4.319,-2.363 -9.615,-4.469 -15.889,-6.318c-6.273,-1.849 -13.318,-4.007 -21.133,-6.472c-24.682,-6.575 -45.044,-14.486 -61.088,-23.732c-16.043,-9.246 -28.743,-19.571 -38.102,-30.974c-9.358,-11.404 -15.889,-23.681 -19.591,-36.831c-3.702,-13.15 -5.553,-27.019 -5.553,-41.607c0,-17.054 3.393,-32.567 10.181,-46.539c6.787,-13.972 16.454,-25.94 29.001,-35.906c12.546,-9.965 27.561,-17.67 45.044,-23.115c17.483,-5.445 36.92,-8.167 58.31,-8.167c12.958,0 25.093,1.078 36.406,3.236c11.312,2.157 22.11,5.548 32.394,10.171c10.284,4.623 20.311,10.581 30.081,17.875c9.77,7.295 19.488,15.976 29.155,26.044c3.497,4.109 5.297,7.961 5.4,11.557c0.102,3.596 -2.211,7.448 -6.942,11.558c-8.022,6.575 -15.683,13.047 -22.985,19.417c-7.302,6.369 -14.86,13.458 -22.676,21.266c-2.468,2.054 -4.937,3.339 -7.405,3.852c-2.468,0.514 -4.833,0.462 -7.096,-0.154c-2.262,-0.616 -4.422,-1.644 -6.479,-3.082c-2.056,-1.438 -3.908,-3.185 -5.553,-5.239c-7.199,-8.014 -15.426,-13.407 -24.682,-16.181c-9.255,-2.774 -17.894,-4.161 -25.915,-4.161c-10.079,0 -18.1,1.747 -24.065,5.24c-5.965,3.493 -8.741,8.835 -8.33,16.026c0.411,5.342 2.417,9.503 6.016,12.482c3.599,2.98 8.022,5.394 13.266,7.243c5.245,1.849 10.799,3.339 16.661,4.469c5.861,1.13 11.261,2.414 16.197,3.853c18.511,5.958 35.48,12.431 50.906,19.417c15.426,6.985 28.795,15.564 40.108,25.735c11.312,10.17 20.105,22.344 26.378,36.522c6.273,14.177 9.41,31.436 9.41,51.778c0,20.341 -4.062,38.525 -12.187,54.552c-8.124,16.026 -19.282,29.485 -33.474,40.374c-14.192,10.89 -31.006,19.212 -50.443,24.965c-19.437,5.753 -40.365,8.63 -62.784,8.63c-12.752,0 -25.71,-1.131 -38.874,-3.391c-13.163,-2.26 -25.916,-5.907 -38.256,-10.941c-12.341,-5.034 -24.065,-11.506 -35.172,-19.417c-11.107,-7.91 -20.979,-17.516 -29.618,-28.817c-2.262,-2.876 -3.959,-5.907 -5.09,-9.092c-1.132,-3.184 -1.646,-6.318 -1.543,-9.4c0.103,-3.082 0.72,-5.907 1.851,-8.476c1.131,-2.568 2.931,-4.777 5.399,-6.626l39.799,-39.758c4.937,-4.109 9.307,-5.548 13.113,-4.315c3.805,1.233 8.69,4.726 14.654,10.479Z" style="fill:#ce3749;fill-rule:nonzero;"/><path d="M3205.71,744.185c-18.1,16.643 -38.462,29.639 -61.087,38.988c-22.625,9.349 -46.587,14.023 -71.886,14.023c-28.178,0 -54.813,-5.136 -79.906,-15.41c-25.093,-10.273 -47.101,-24.502 -66.024,-42.686c-18.922,-18.184 -33.937,-39.604 -45.044,-64.26c-11.107,-24.657 -16.66,-51.47 -16.66,-80.441c0,-18.082 2.211,-35.598 6.633,-52.549c4.422,-16.951 10.696,-32.824 18.82,-47.618c8.124,-14.793 17.997,-28.406 29.618,-40.836c11.621,-12.431 24.63,-23.064 39.028,-31.9c14.397,-8.835 30.029,-15.718 46.895,-20.649c16.866,-4.931 34.657,-7.397 53.374,-7.397c17.072,0 33.629,2.26 49.672,6.78c16.043,4.521 31.109,10.89 45.198,19.109c14.089,8.219 26.996,18.081 38.72,29.588c11.723,11.506 21.802,24.091 30.235,37.754c8.433,13.664 14.963,28.252 19.591,43.765c4.627,15.513 6.941,31.488 6.941,47.926c0,10.684 -0.154,19.417 -0.462,26.197c-0.309,6.781 -1.903,12.174 -4.782,16.181c-2.88,4.007 -7.662,6.78 -14.347,8.321c-6.684,1.541 -16.506,2.312 -29.463,2.312l-222.135,0c2.056,13.15 6.221,24.143 12.495,32.978c6.273,8.835 13.523,15.872 21.75,21.112c8.228,5.239 16.969,8.989 26.225,11.249c9.255,2.26 17.997,3.39 26.224,3.39c7.404,0 15.015,-0.77 22.831,-2.311c7.815,-1.541 15.374,-3.596 22.676,-6.164c7.301,-2.569 13.986,-5.548 20.054,-8.938c6.067,-3.39 10.952,-6.935 14.654,-10.633c3.291,-2.671 6.119,-4.675 8.485,-6.01c2.365,-1.336 4.885,-2.004 7.558,-2.004c2.674,0 5.4,0.925 8.176,2.774c2.777,1.85 5.914,4.521 9.41,8.014l32.703,36.984c2.263,2.671 3.703,5.085 4.32,7.243c0.617,2.157 0.925,4.366 0.925,6.626c0,4.11 -1.131,7.654 -3.394,10.633c-2.262,2.979 -4.936,5.599 -8.021,7.859Zm-148.399,-256.733c-8.021,0 -15.786,1.592 -23.293,4.777c-7.507,3.185 -14.552,7.448 -21.134,12.791c-6.581,5.342 -12.495,11.403 -17.74,18.184c-5.244,6.78 -9.512,13.663 -12.803,20.649l157.654,0c-4.319,-8.013 -8.999,-15.41 -14.038,-22.19c-5.039,-6.781 -10.798,-12.74 -17.277,-17.876c-6.479,-5.137 -13.883,-9.144 -22.213,-12.02c-8.33,-2.877 -18.049,-4.315 -29.156,-4.315Z" style="fill:#ce3749;fill-rule:nonzero;"/><path d="M3328.5,404.853c2.674,-2.26 5.502,-3.698 8.485,-4.314c2.982,-0.617 5.81,-0.925 8.484,-0.925l46.586,0c3.703,0 6.891,0.668 9.565,2.003c2.673,1.336 4.936,3.134 6.787,5.394c1.851,2.26 3.342,4.828 4.474,7.705c1.131,2.877 2.211,5.856 3.239,8.938l6.479,27.122c3.085,-6.37 8.073,-12.945 14.963,-19.725c6.891,-6.781 15.426,-12.945 25.608,-18.492c10.181,-5.548 21.956,-10.12 35.325,-13.715c13.369,-3.596 28.281,-5.394 44.736,-5.394c23.447,0 44.375,4.52 62.784,13.561c18.408,9.041 34.04,21.369 46.895,36.984c12.855,15.616 22.625,33.851 29.309,54.706c6.685,20.855 10.027,43.097 10.027,66.726l0,201.874c0,7.807 -1.697,13.715 -5.09,17.721c-3.394,4.007 -8.793,6.01 -16.198,6.01l-71.268,0c-8.844,0 -14.912,-1.489 -18.203,-4.469c-3.291,-2.979 -4.936,-8.783 -4.936,-17.413l0,-200.641c0,-8.835 -2.005,-17.208 -6.016,-25.118c-4.011,-7.911 -9.307,-14.897 -15.889,-20.958c-6.582,-6.061 -14.038,-10.838 -22.368,-14.331c-8.33,-3.493 -16.814,-5.24 -25.453,-5.24c-7.404,0 -14.963,1.644 -22.676,4.931c-7.713,3.288 -14.809,7.86 -21.288,13.715c-6.479,5.856 -11.929,12.74 -16.352,20.65c-4.422,7.911 -6.941,16.489 -7.558,25.735l0,200.332c0,3.493 -0.669,6.986 -2.006,10.479c-1.337,3.493 -3.342,6.164 -6.016,8.013c-2.674,1.644 -5.193,2.774 -7.559,3.391c-2.365,0.616 -5.09,0.924 -8.175,0.924l-69.726,0c-8.844,0 -15.221,-2.157 -19.128,-6.472c-3.908,-4.315 -5.862,-10.068 -5.862,-17.259l0,-344.88c0,-3.904 0.874,-7.5 2.622,-10.787c1.748,-3.288 4.165,-5.856 7.25,-7.705l-1.851,0.924Z" style="fill:#ce3749;fill-rule:nonzero;"/><path d="M4023.29,670.525c2.88,-2.055 5.605,-3.339 8.176,-3.853c2.571,-0.513 4.576,-0.77 6.016,-0.77c3.497,0 6.685,0.719 9.564,2.157c2.88,1.438 5.862,4.52 8.947,9.246l34.555,52.087c1.028,1.643 2.005,3.493 2.93,5.547c0.926,2.055 1.389,3.699 1.389,4.932c0,4.725 -1.491,8.578 -4.474,11.557c-2.982,2.979 -6.222,5.599 -9.718,7.859c-16.866,11.712 -35.326,21.112 -55.38,28.201c-20.053,7.089 -41.29,10.633 -63.709,10.633c-18.511,0 -36.354,-2.363 -53.529,-7.089c-17.174,-4.726 -33.165,-11.455 -47.974,-20.187c-14.809,-8.732 -28.384,-19.211 -40.725,-31.437c-12.341,-12.225 -22.831,-25.838 -31.469,-40.837c-8.639,-14.999 -15.375,-31.18 -20.208,-48.542c-4.834,-17.362 -7.251,-35.495 -7.251,-54.398c0,-18.903 2.417,-37.087 7.251,-54.552c4.833,-17.464 11.569,-33.645 20.208,-48.542c8.638,-14.896 19.128,-28.457 31.469,-40.683c12.341,-12.225 25.916,-22.652 40.725,-31.282c14.809,-8.63 30.8,-15.308 47.974,-20.033c17.175,-4.726 35.018,-7.089 53.529,-7.089c22.419,0 43.141,2.979 62.167,8.938c19.025,5.958 36.868,14.794 53.528,26.505l-0.925,-0.924c4.525,2.671 8.124,5.804 10.798,9.4c2.674,3.596 4.011,8.065 4.011,13.407c0,3.698 -1.235,7.499 -3.703,11.403l-27.458,46.539c-5.759,10.068 -12.752,15.102 -20.979,15.102c-1.852,0 -4.114,-0.462 -6.788,-1.387c-2.674,-0.925 -5.656,-2.517 -8.947,-4.777c-9.05,-5.959 -18.768,-10.839 -29.155,-14.64c-10.387,-3.801 -21.442,-5.702 -33.166,-5.702c-12.958,0 -24.888,2.62 -35.789,7.86c-10.901,5.239 -20.208,12.379 -27.921,21.42c-7.713,9.04 -13.729,19.519 -18.048,31.437c-4.319,11.917 -6.479,24.45 -6.479,37.6c0,13.561 2.16,26.249 6.479,38.063c4.319,11.815 10.335,22.037 18.048,30.667c7.713,8.629 17.02,15.461 27.921,20.495c10.901,5.034 22.831,7.551 35.789,7.551c11.724,0 22.728,-2.054 33.012,-6.164c10.284,-4.109 20.053,-9.349 29.309,-15.718Z" style="fill:#ce3749;fill-rule:nonzero;"/><path d="M4562.89,768.225c0,3.493 -0.617,6.832 -1.851,10.017c-1.234,3.185 -3.291,5.702 -6.171,7.551c-2.262,2.26 -4.936,3.698 -8.021,4.315c-3.085,0.616 -5.759,0.924 -8.022,0.924l-60.778,0c-4.32,0 -7.816,-0.565 -10.49,-1.695c-2.674,-1.13 -4.834,-2.722 -6.479,-4.777c-1.645,-2.055 -3.034,-4.572 -4.165,-7.551c-1.131,-2.979 -2.314,-6.215 -3.548,-9.708l-4.011,-13.87c-5.553,5.548 -11.878,10.993 -18.974,16.335c-7.096,5.342 -14.912,10.12 -23.447,14.332c-8.536,4.212 -17.689,7.602 -27.459,10.17c-9.77,2.569 -19.899,3.853 -30.389,3.853c-18.717,0 -36.663,-2.363 -53.837,-7.089c-17.174,-4.726 -33.217,-11.455 -48.129,-20.187c-14.912,-8.732 -28.435,-19.211 -40.571,-31.437c-12.135,-12.225 -22.573,-25.838 -31.315,-40.837c-8.741,-14.999 -15.477,-31.18 -20.208,-48.542c-4.73,-17.362 -7.096,-35.495 -7.096,-54.398c0,-28.56 5.245,-55.117 15.735,-79.67c10.49,-24.554 24.784,-45.923 42.884,-64.107c18.1,-18.184 39.388,-32.464 63.864,-42.84c24.476,-10.376 50.7,-15.564 78.673,-15.564c12.752,0 24.63,1.438 35.634,4.315c11.004,2.876 21.082,6.78 30.235,11.712c9.153,4.931 17.432,10.838 24.836,17.721c7.405,6.883 13.883,14.332 19.437,22.345l8.947,-28.047c2.057,-5.136 3.754,-9.297 5.091,-12.482c1.336,-3.185 2.776,-5.547 4.319,-7.088c1.542,-1.541 3.445,-2.569 5.707,-3.082c2.263,-0.514 5.451,-0.771 9.565,-0.771l45.969,0c2.263,0 4.937,0.308 8.022,0.925c3.085,0.616 5.759,2.054 8.021,4.314c2.88,2.261 4.937,4.829 6.171,7.706c1.234,2.876 1.851,6.164 1.851,9.862l0,347.345Zm-303.893,-172.594c0,13.561 2.108,26.249 6.325,38.063c4.216,11.815 10.232,22.037 18.048,30.667c7.816,8.629 17.226,15.461 28.23,20.495c11.004,5.034 23.19,7.551 36.559,7.551c13.781,0 26.585,-2.517 38.411,-7.551c11.827,-5.034 22.111,-11.866 30.852,-20.495c8.742,-8.63 15.581,-18.852 20.517,-30.667c4.936,-11.814 7.404,-24.502 7.404,-38.063c0,-13.15 -2.468,-25.683 -7.404,-37.6c-4.936,-11.918 -11.775,-22.397 -20.517,-31.437c-8.741,-9.041 -19.025,-16.181 -30.852,-21.42c-11.826,-5.24 -24.63,-7.86 -38.411,-7.86c-13.369,0 -25.555,2.62 -36.559,7.86c-11.004,5.239 -20.414,12.379 -28.23,21.42c-7.816,9.04 -13.832,19.519 -18.048,31.437c-4.217,11.917 -6.325,24.45 -6.325,37.6Z" style="fill:#ce3749;fill-rule:nonzero;"/><path d="M2646.26,1027.38l-37.46,0l0,-65.193l-55.493,0l0,65.193l-37.675,0l0,-156.12l37.675,0l0,61.976l55.493,0l0,-61.976l37.46,0l0,156.12Z" style="fill:#ce3749;fill-rule:nonzero;"/><path d="M2724.9,1027.38c-1.288,-2.359 -2.433,-5.826 -3.435,-10.401c-6.655,8.364 -15.957,12.546 -27.907,12.546c-10.948,0 -20.251,-3.306 -27.908,-9.919c-7.656,-6.612 -11.484,-14.922 -11.484,-24.929c0,-12.582 4.651,-22.089 13.953,-28.522c9.303,-6.434 22.827,-9.651 40.573,-9.651l11.163,0l0,-6.112c0,-10.651 -4.615,-15.976 -13.846,-15.976c-8.587,0 -12.881,4.217 -12.881,12.653l-36.172,0c0,-11.223 4.777,-20.338 14.33,-27.343c9.552,-7.005 21.735,-10.508 36.547,-10.508c14.813,0 26.512,3.61 35.099,10.83c8.587,7.22 12.988,17.12 13.203,29.701l0,51.361c0.143,10.651 1.788,18.8 4.937,24.447l0,1.823l-36.172,0Zm-22.648,-23.589c4.508,0 8.247,-0.965 11.217,-2.895c2.969,-1.93 5.098,-4.111 6.386,-6.541l0,-18.55l-10.519,0c-12.594,0 -18.891,5.647 -18.891,16.942c0,3.288 1.109,5.951 3.327,7.988c2.219,2.037 5.045,3.056 8.48,3.056Z" style="fill:#ce3749;fill-rule:nonzero;"/><path d="M2875.03,970.334c0,19.015 -3.936,33.633 -11.807,43.856c-7.872,10.222 -18.963,15.333 -33.274,15.333c-11.807,0 -21.324,-4.682 -28.552,-14.047l-1.502,11.902l-32.416,0l0,-164.698l36.172,0l0,58.009c6.727,-7.649 15.421,-11.473 26.083,-11.473c14.454,0 25.617,5.183 33.489,15.548c7.871,10.365 11.807,24.947 11.807,43.748l0,1.822Zm-36.28,-2.251c0,-11.152 -1.485,-19.104 -4.454,-23.858c-2.97,-4.754 -7.532,-7.13 -13.686,-7.13c-8.157,0 -13.81,3.109 -16.959,9.328l0,46.107c3.077,6.148 8.802,9.221 17.174,9.221c8.515,0 13.918,-4.146 16.208,-12.438c1.145,-4.074 1.717,-11.151 1.717,-21.23Z" style="fill:#ce3749;fill-rule:nonzero;"/><path d="M2920.18,1027.38l-36.28,0l0,-116.018l36.28,0l0,116.018Zm-38.426,-145.933c0,-5.147 1.86,-9.365 5.581,-12.653c3.721,-3.288 8.551,-4.932 14.491,-4.932c5.939,0 10.769,1.644 14.49,4.932c3.721,3.288 5.581,7.506 5.581,12.653c0,5.146 -1.86,9.364 -5.581,12.652c-3.721,3.288 -8.551,4.933 -14.49,4.933c-5.94,0 -10.77,-1.645 -14.491,-4.933c-3.721,-3.288 -5.581,-7.506 -5.581,-12.652Z" style="fill:#ce3749;fill-rule:nonzero;"/><rect x="2935.39" y="862.68" width="36.28" height="164.698" style="fill:#ce3749;fill-rule:nonzero;"/><path d="M3023.15,1027.38l-36.279,0l0,-116.018l36.279,0l0,116.018Zm-38.426,-145.933c0,-5.147 1.861,-9.365 5.581,-12.653c3.721,-3.288 8.552,-4.932 14.491,-4.932c5.939,0 10.769,1.644 14.49,4.932c3.721,3.288 5.582,7.506 5.582,12.653c0,5.146 -1.861,9.364 -5.582,12.652c-3.721,3.288 -8.551,4.933 -14.49,4.933c-5.939,0 -10.77,-1.645 -14.491,-4.933c-3.72,-3.288 -5.581,-7.506 -5.581,-12.652Z" style="fill:#ce3749;fill-rule:nonzero;"/><path d="M3031.92,968.512c0,-18.372 3.971,-32.847 11.914,-43.427c7.943,-10.579 19.034,-15.869 33.274,-15.869c10.376,0 19.106,4.075 26.19,12.224l0,-58.76l36.28,0l0,164.698l-32.523,0l-1.825,-12.438c-7.442,9.722 -16.887,14.583 -28.337,14.583c-13.81,0 -24.758,-5.29 -32.844,-15.87c-8.086,-10.579 -12.129,-25.626 -12.129,-45.141Zm36.172,2.251c0,20.588 6.011,30.881 18.032,30.881c8.015,0 13.739,-3.36 17.174,-10.079l0,-44.177c-3.292,-6.862 -8.945,-10.293 -16.959,-10.293c-11.163,0 -17.209,9.006 -18.14,27.02l-0.107,6.648Z" style="fill:#ce3749;fill-rule:nonzero;"/><path d="M3216.61,1027.38c-1.288,-2.359 -2.433,-5.826 -3.435,-10.401c-6.655,8.364 -15.957,12.546 -27.907,12.546c-10.949,0 -20.251,-3.306 -27.908,-9.919c-7.656,-6.612 -11.485,-14.922 -11.485,-24.929c0,-12.582 4.652,-22.089 13.954,-28.522c9.302,-6.434 22.827,-9.651 40.573,-9.651l11.163,0l0,-6.112c0,-10.651 -4.616,-15.976 -13.846,-15.976c-8.587,0 -12.881,4.217 -12.881,12.653l-36.172,0c0,-11.223 4.777,-20.338 14.329,-27.343c9.553,-7.005 21.736,-10.508 36.548,-10.508c14.813,0 26.512,3.61 35.099,10.83c8.587,7.22 12.988,17.12 13.202,29.701l0,51.361c0.144,10.651 1.789,18.8 4.938,24.447l0,1.823l-36.172,0Zm-22.648,-23.589c4.508,0 8.247,-0.965 11.216,-2.895c2.97,-1.93 5.099,-4.111 6.387,-6.541l0,-18.55l-10.519,0c-12.594,0 -18.891,5.647 -18.891,16.942c0,3.288 1.109,5.951 3.327,7.988c2.219,2.037 5.045,3.056 8.48,3.056Z" style="fill:#ce3749;fill-rule:nonzero;"/><path d="M3254.35,968.512c0,-18.372 3.971,-32.847 11.914,-43.427c7.943,-10.579 19.034,-15.869 33.274,-15.869c10.376,0 19.106,4.075 26.19,12.224l0,-58.76l36.28,0l0,164.698l-32.523,0l-1.825,-12.438c-7.442,9.722 -16.887,14.583 -28.336,14.583c-13.811,0 -24.759,-5.29 -32.845,-15.87c-8.086,-10.579 -12.129,-25.626 -12.129,-45.141Zm36.172,2.251c0,20.588 6.011,30.881 18.032,30.881c8.015,0 13.739,-3.36 17.174,-10.079l0,-44.177c-3.291,-6.862 -8.944,-10.293 -16.959,-10.293c-11.163,0 -17.209,9.006 -18.14,27.02l-0.107,6.648Z" style="fill:#ce3749;fill-rule:nonzero;"/><path d="M3429.81,1029.52c-17.818,0 -32.237,-5.308 -43.256,-15.923c-11.02,-10.615 -16.53,-24.43 -16.53,-41.443l0,-3.002c0,-11.866 2.2,-22.339 6.601,-31.417c4.401,-9.079 10.823,-16.102 19.267,-21.07c8.443,-4.968 18.462,-7.452 30.054,-7.452c16.315,0 29.195,5.057 38.641,15.172c9.445,10.115 14.168,24.215 14.168,42.301l0,14.046l-71.915,0c1.288,6.505 4.115,11.616 8.48,15.333c4.365,3.718 10.018,5.576 16.959,5.576c11.449,0 20.393,-4.003 26.834,-12.009l16.529,19.515c-4.508,6.219 -10.894,11.169 -19.159,14.851c-8.265,3.681 -17.156,5.522 -26.673,5.522Zm-4.079,-92.428c-10.59,0 -16.887,7.005 -18.891,21.016l36.494,0l0,-2.788c0.143,-5.79 -1.324,-10.276 -4.401,-13.457c-3.077,-3.181 -7.477,-4.771 -13.202,-4.771Z" style="fill:#ce3749;fill-rule:nonzero;"/><path d="M3545.16,994.782c0,-3.074 -1.61,-5.54 -4.83,-7.399c-3.22,-1.858 -9.338,-3.788 -18.355,-5.79c-9.016,-2.001 -16.458,-4.628 -22.326,-7.881c-5.867,-3.252 -10.34,-7.202 -13.417,-11.848c-3.076,-4.647 -4.615,-9.972 -4.615,-15.977c0,-10.651 4.401,-19.426 13.202,-26.324c8.802,-6.898 20.323,-10.347 34.562,-10.347c15.314,0 27.622,3.467 36.924,10.401c9.302,6.934 13.954,16.048 13.954,27.342l-36.28,0c0,-9.293 -4.902,-13.939 -14.705,-13.939c-3.792,0 -6.977,1.054 -9.553,3.163c-2.576,2.109 -3.864,4.736 -3.864,7.881c0,3.217 1.574,5.826 4.723,7.828c3.148,2.001 8.175,3.645 15.081,4.932c6.905,1.287 12.969,2.824 18.193,4.611c17.46,6.004 26.19,16.763 26.19,32.275c0,10.579 -4.705,19.193 -14.115,25.841c-9.409,6.648 -21.592,9.972 -36.548,9.972c-9.946,0 -18.819,-1.787 -26.619,-5.361c-7.8,-3.575 -13.882,-8.436 -18.247,-14.583c-4.365,-6.148 -6.547,-12.617 -6.547,-19.408l33.81,0c0.144,5.361 1.932,9.275 5.367,11.741c3.435,2.466 7.836,3.7 13.202,3.7c4.938,0 8.641,-1.001 11.11,-3.003c2.468,-2.001 3.703,-4.61 3.703,-7.827Z" style="fill:#ce3749;fill-rule:nonzero;"/><path d="M3733.57,994.782c0,-3.074 -1.61,-5.54 -4.83,-7.399c-3.22,-1.858 -9.338,-3.788 -18.354,-5.79c-9.016,-2.001 -16.458,-4.628 -22.326,-7.881c-5.868,-3.252 -10.34,-7.202 -13.417,-11.848c-3.077,-4.647 -4.615,-9.972 -4.615,-15.977c0,-10.651 4.4,-19.426 13.202,-26.324c8.801,-6.898 20.322,-10.347 34.562,-10.347c15.313,0 27.621,3.467 36.923,10.401c9.303,6.934 13.954,16.048 13.954,27.342l-36.279,0c0,-9.293 -4.902,-13.939 -14.705,-13.939c-3.793,0 -6.977,1.054 -9.553,3.163c-2.576,2.109 -3.864,4.736 -3.864,7.881c0,3.217 1.574,5.826 4.722,7.828c3.149,2.001 8.176,3.645 15.081,4.932c6.905,1.287 12.97,2.824 18.194,4.611c17.459,6.004 26.189,16.763 26.189,32.275c0,10.579 -4.704,19.193 -14.114,25.841c-9.41,6.648 -21.593,9.972 -36.548,9.972c-9.947,0 -18.82,-1.787 -26.619,-5.361c-7.8,-3.575 -13.882,-8.436 -18.247,-14.583c-4.365,-6.148 -6.548,-12.617 -6.548,-19.408l33.811,0c0.143,5.361 1.932,9.275 5.367,11.741c3.434,2.466 7.835,3.7 13.202,3.7c4.937,0 8.641,-1.001 11.109,-3.003c2.469,-2.001 3.703,-4.61 3.703,-7.827Z" style="fill:#ce3749;fill-rule:nonzero;"/><path d="M3814.58,1027.38l-36.28,0l0,-116.018l36.28,0l0,116.018Zm-38.426,-145.933c0,-5.147 1.86,-9.365 5.581,-12.653c3.721,-3.288 8.551,-4.932 14.49,-4.932c5.94,0 10.77,1.644 14.491,4.932c3.721,3.288 5.581,7.506 5.581,12.653c0,5.146 -1.86,9.364 -5.581,12.652c-3.721,3.288 -8.551,4.933 -14.491,4.933c-5.939,0 -10.769,-1.645 -14.49,-4.933c-3.721,-3.288 -5.581,-7.506 -5.581,-12.652Z" style="fill:#ce3749;fill-rule:nonzero;"/><path d="M3861.12,911.36l1.18,13.618c8.015,-10.508 19.07,-15.762 33.167,-15.762c12.093,0 21.127,3.61 27.102,10.83c5.975,7.22 9.07,18.085 9.285,32.596l0,74.736l-36.28,0l0,-73.235c0,-5.861 -1.18,-10.168 -3.542,-12.92c-2.361,-2.752 -6.655,-4.128 -12.88,-4.128c-7.084,0 -12.344,2.787 -15.778,8.363l0,81.92l-36.173,0l0,-116.018l33.919,0Z" style="fill:#ce3749;fill-rule:nonzero;"/><rect x="3986.85" y="862.68" width="36.28" height="164.698" style="fill:#ce3749;fill-rule:nonzero;"/><path d="M4075.91,1027.38l-36.387,0l0,-116.018l36.387,0l0,116.018Zm-13.524,-162.553l38.211,0l-29.839,33.668l-29.517,0l21.145,-33.668Z" style="fill:#ce3749;fill-rule:nonzero;"/><path d="M4124.39,911.36l1.181,13.618c8.229,-10.508 19.284,-15.762 33.166,-15.762c14.67,0 24.58,5.826 29.732,17.478c7.872,-11.652 19.249,-17.478 34.133,-17.478c23.542,0 35.636,14.225 36.28,42.676l0,75.486l-36.28,0l0,-73.235c0,-5.933 -1.002,-10.258 -3.005,-12.974c-2.004,-2.716 -5.653,-4.074 -10.949,-4.074c-7.155,0 -12.486,3.181 -15.993,9.543l0.108,1.501l0,79.239l-36.28,0l0,-73.02c0,-6.076 -0.966,-10.473 -2.898,-13.189c-1.932,-2.716 -5.617,-4.074 -11.055,-4.074c-6.941,0 -12.237,3.181 -15.886,9.543l0,80.74l-36.172,0l0,-116.018l33.918,0Z" style="fill:#ce3749;fill-rule:nonzero;"/><path d="M4308.75,1027.38l-36.28,0l0,-116.018l36.28,0l0,116.018Zm-38.427,-145.933c0,-5.147 1.861,-9.365 5.582,-12.653c3.721,-3.288 8.551,-4.932 14.49,-4.932c5.94,0 10.77,1.644 14.491,4.932c3.721,3.288 5.581,7.506 5.581,12.653c0,5.146 -1.86,9.364 -5.581,12.652c-3.721,3.288 -8.551,4.933 -14.491,4.933c-5.939,0 -10.769,-1.645 -14.49,-4.933c-3.721,-3.288 -5.582,-7.506 -5.582,-12.652Z" style="fill:#ce3749;fill-rule:nonzero;"/><path d="M4364.21,882.517l0,28.843l19.106,0l0,25.091l-19.106,0l0,53.077c0,4.36 0.787,7.398 2.362,9.114c1.574,1.716 4.687,2.573 9.338,2.573c3.578,0 6.583,-0.214 9.016,-0.643l0,25.841c-6.512,2.073 -13.31,3.11 -20.394,3.11c-12.451,0 -21.646,-2.931 -27.585,-8.793c-5.939,-5.861 -8.909,-14.761 -8.909,-26.699l0,-57.58l-14.812,0l0,-25.091l14.812,0l0,-28.843l36.172,0Z" style="fill:#ce3749;fill-rule:nonzero;"/><path d="M4444.78,1029.52c-17.817,0 -32.236,-5.308 -43.256,-15.923c-11.02,-10.615 -16.53,-24.43 -16.53,-41.443l0,-3.002c0,-11.866 2.201,-22.339 6.602,-31.417c4.4,-9.079 10.823,-16.102 19.266,-21.07c8.444,-4.968 18.462,-7.452 30.054,-7.452c16.315,0 29.196,5.057 38.641,15.172c9.446,10.115 14.169,24.215 14.169,42.301l0,14.046l-71.915,0c1.288,6.505 4.114,11.616 8.479,15.333c4.365,3.718 10.018,5.576 16.959,5.576c11.449,0 20.394,-4.003 26.834,-12.009l16.53,19.515c-4.508,6.219 -10.895,11.169 -19.16,14.851c-8.264,3.681 -17.155,5.522 -26.673,5.522Zm-4.078,-92.428c-10.591,0 -16.888,7.005 -18.891,21.016l36.494,0l0,-2.788c0.143,-5.79 -1.324,-10.276 -4.401,-13.457c-3.077,-3.181 -7.478,-4.771 -13.202,-4.771Z" style="fill:#ce3749;fill-rule:nonzero;"/><path d="M4560.13,994.782c0,-3.074 -1.61,-5.54 -4.83,-7.399c-3.22,-1.858 -9.338,-3.788 -18.354,-5.79c-9.016,-2.001 -16.458,-4.628 -22.326,-7.881c-5.868,-3.252 -10.34,-7.202 -13.417,-11.848c-3.077,-4.647 -4.615,-9.972 -4.615,-15.977c0,-10.651 4.4,-19.426 13.202,-26.324c8.801,-6.898 20.322,-10.347 34.562,-10.347c15.313,0 27.621,3.467 36.924,10.401c9.302,6.934 13.953,16.048 13.953,27.342l-36.279,0c0,-9.293 -4.902,-13.939 -14.705,-13.939c-3.793,0 -6.977,1.054 -9.553,3.163c-2.576,2.109 -3.864,4.736 -3.864,7.881c0,3.217 1.574,5.826 4.723,7.828c3.148,2.001 8.175,3.645 15.08,4.932c6.905,1.287 12.97,2.824 18.194,4.611c17.46,6.004 26.19,16.763 26.19,32.275c0,10.579 -4.705,19.193 -14.115,25.841c-9.41,6.648 -21.592,9.972 -36.548,9.972c-9.946,0 -18.819,-1.787 -26.619,-5.361c-7.8,-3.575 -13.882,-8.436 -18.247,-14.583c-4.365,-6.148 -6.548,-12.617 -6.548,-19.408l33.811,0c0.143,5.361 1.932,9.275 5.367,11.741c3.435,2.466 7.835,3.7 13.202,3.7c4.938,0 8.641,-1.001 11.109,-3.003c2.469,-2.001 3.703,-4.61 3.703,-7.827Z" style="fill:#ce3749;fill-rule:nonzero;"/></g><g><path d="M1090.72,292.118l-472.281,0c-1.224,12.308 -7.317,29.669 -16.729,49.706l489.01,0.017l0,750.963l-751.741,0l0.053,-545.37c-16.381,-1.875 -33.255,-4.405 -49.822,-7.457l0,552.827c0,27.412 22.329,49.723 49.769,49.723l751.741,0c27.441,0 49.775,-22.311 49.775,-49.723l0,-750.963c0,-27.417 -22.334,-49.723 -49.775,-49.723" style="fill:#ce3749;fill-rule:nonzero;"/><path d="M521.74,195.25l-130.872,190.013l-226.099,-26.292l27.435,98.418c0.006,-0.162 0.093,-0.313 0.162,-0.58c-0.481,4.479 -0.005,8.675 1.7,12.383c14.878,32.367 203.429,66.654 248.747,45.869c45.359,-20.796 158.406,-193.418 143.534,-225.779c-1.619,-3.523 -4.335,-6.378 -10.857,-15.807l-53.75,-78.225Z" style="fill:#ce3749;fill-rule:nonzero;"/><path d="M284.139,200.18l-233.614,107.14l18.302,-24.528l206.248,-94.589c0.528,-5.912 5.344,-12.104 12.714,-15.481c9.818,-4.509 20.448,-2.309 23.744,4.851c3.307,7.201 -1.956,16.683 -11.779,21.185c-5.461,2.588 -11.066,2.815 -15.615,1.422m293.415,-144.143l-317.107,39.829l-211.204,192.317c-3.238,2.147 -6.116,4.56 -8.019,7.311c-2.31,3.325 -3.226,7.027 -1.549,11.1c6.028,16.613 75.318,207.618 75.318,207.618l41.929,47.5l-9.922,-62.181l-93.666,-186.618l324.076,39.412l200.144,-296.288Z" style="fill:#ce3749;fill-rule:nonzero;"/><path d="M885.304,692.19l-286.214,-165.078c-19.34,-11.153 -43.508,2.808 -43.508,25.131l0,330.157c0,22.328 24.168,36.29 43.508,25.131l286.214,-165.079c19.358,-11.164 19.358,-39.098 0,-50.262" style="fill:#ce3749;fill-rule:nonzero;"/></g></g></svg>