<?xml version="1.0" encoding="UTF-8" standalone="no"?>
<!DOCTYPE svg PUBLIC "-//W3C//DTD SVG 1.1//EN" "http://www.w3.org/Graphics/SVG/1.1/DTD/svg11.dtd">
<svg width="100%" height="100%" viewBox="0 0 434 400" version="1.1" xmlns="http://www.w3.org/2000/svg" xmlns:xlink="http://www.w3.org/1999/xlink" xml:space="preserve" xmlns:serif="http://www.serif.com/" style="fill-rule:evenodd;clip-rule:evenodd;stroke-linejoin:round;stroke-miterlimit:2;">
    <g id="Mesa-de-trabajo1" serif:id="Mesa de trabajo1" transform="matrix(0.773595,0,0,1,0,0)">
        <rect x="0" y="0" width="560" height="400" style="fill:none;"/>
        <g transform="matrix(1.29267,0,0,1,-82.8906,0)">
            <g transform="matrix(1.79649,0,0,1.79649,-223.016,-159.091)">
                <path d="M293.75,103.75C241.007,103.904 197.654,147.257 197.5,200L319.442,225.692L293.75,103.75Z" style="fill:rgb(237,108,71);fill-rule:nonzero;"/>
            </g>
            <g transform="matrix(1.79649,0,0,1.79649,-223.016,-159.091)">
                <path d="M293.75,103.75C346.493,103.904 389.846,147.257 390,200L341.875,232.711L293.75,200L293.75,103.75Z" style="fill:rgb(255,143,107);fill-rule:nonzero;"/>
            </g>
            <g transform="matrix(1.79649,0,0,1.79649,-223.016,-159.091)">
                <path d="M293.75,296.25C346.493,296.096 389.846,252.743 390,200L197.5,200C197.654,252.743 241.007,296.096 293.75,296.25Z" style="fill:rgb(211,82,48);fill-rule:nonzero;"/>
            </g>
            <g transform="matrix(1.79649,0,0,1.79649,-223.016,-159.091)">
                <path d="M284.579,138.125L220.222,138.125C187.793,176.338 190.613,233.89 226.622,268.75L284.586,268.75C289.607,268.735 293.735,264.607 293.75,259.586L293.75,147.296C293.735,142.274 289.607,138.147 284.586,138.132L284.579,138.125Z" style="fill-opacity:0.09;fill-rule:nonzero;"/>
            </g>
            <g transform="matrix(1.79649,0,0,1.79649,-223.016,-159.091)">
                <path d="M277.704,145L214.949,145C185.685,186.526 194.368,244.496 234.515,275.625L277.704,275.625C282.726,275.61 286.853,271.482 286.868,266.461L286.868,154.171C286.853,149.149 282.726,145.022 277.704,145.007L277.704,145ZM277.704,145L214.949,145C189.921,180.485 192.098,228.785 220.215,261.875L277.697,261.875C282.718,261.86 286.846,257.732 286.861,252.711L286.861,154.171C286.846,149.149 282.718,145.022 277.697,145.007L277.704,145ZM270.829,145L214.949,145C189.921,180.485 192.098,228.785 220.215,261.875L270.822,261.875C275.843,261.86 279.971,257.732 279.986,252.711L279.986,154.171C279.971,149.149 275.843,145.022 270.822,145.007L270.829,145Z" style="fill-opacity:0.2;fill-rule:nonzero;"/>
            </g>
            <g transform="matrix(1.79649,0,0,1.79649,-223.016,-159.091)">
                <path d="M179.164,145L270.829,145C275.856,145 279.993,149.137 279.993,154.164L279.993,245.829C279.993,250.856 275.856,254.993 270.829,254.993L179.164,254.993C174.137,254.993 170,250.856 170,245.829L170,154.164C170,149.137 174.137,145 179.164,145Z" style="fill:rgb(196,62,28);fill-rule:nonzero;"/>
            </g>
            <g transform="matrix(1.79649,0,0,1.79649,-223.016,-159.091)">
                <path d="M224.979,165.625C231.747,165.17 238.462,167.131 243.92,171.159C248.453,175.205 250.88,181.121 250.492,187.185C250.566,191.07 249.43,194.884 247.241,198.096C245.012,201.649 241.803,204.484 238.001,206.256C233.654,208.272 228.904,209.266 224.113,209.164L210.975,209.164L210.975,234.368L197.5,234.368L197.5,165.618L224.979,165.625ZM210.975,197.821L222.573,197.821C226.247,198.089 229.895,197.003 232.824,194.768C235.192,193.245 236.528,190.527 236.289,187.721C236.289,180.118 231.861,176.316 223.006,176.316L210.975,176.316L210.975,197.821Z" style="fill:rgb(249,247,247);fill-rule:nonzero;"/>
            </g>
        </g>
        <g transform="matrix(2.32226,0,0,1.79649,-371.176,-159.091)">
            <rect x="170" y="90" width="220" height="220" style="fill:none;"/>
        </g>
    </g>
</svg>
